<svg xmlns="http://www.w3.org/2000/svg" width="56" height="56" viewBox="0 0 56 56"><defs><linearGradient gradientUnits="userSpaceOnUse" y1="54.11" x2="0" y2="1.891"><stop stop-color="#a6a5a6"/><stop offset="1" stop-color="#b7b9ba"/></linearGradient><linearGradient gradientUnits="userSpaceOnUse" y1="54.11" x2="0" y2="1.891"><stop stop-color="#c8c8c8"/><stop offset="1" stop-color="#fafafa"/></linearGradient><linearGradient gradientUnits="userSpaceOnUse" y1="54.11" x2="0" y2="1.891"><stop stop-color="#af004b"/><stop offset="1" stop-color="#c3004a"/></linearGradient><linearGradient gradientUnits="userSpaceOnUse" y1="54.11" x2="0" y2="1.891"><stop stop-color="#00873d"/><stop offset="1" stop-color="#009c3d"/></linearGradient></defs><path fill="#009534" d="m40.688 33.756c-1.199-.384-2.486-1.359-2.783-1.803-.086-1.142-1.104-2.353-2.461-2.408-.326-.229-.967-1.302-1.453-2.42.393-.769 1.059-1.689 1.57-1.817.566-.142 1.518-.653 1.516-2.499 0-.812-.186-1.564-.193-1.595-.121-.481-.607-.773-1.09-.655-.014.003-1.242.306-2.119.306-.111 0-.193-.015-.248-.029.029-.1.111-.279.301-.532.367-.49.973-1.122 1.559-1.732.563-.587 1.014-1.071 1.377-1.503.607.482 1.186 1.01 1.715 1.594 3.74 4.152 4.57 10.11 2.309 15.09m-15.521-14.657c-.063 1.533-.833 2.15-1.725 2.866-.264.212-.518.418-.744.635-.096.092-.175.118-.413.184-.692.195-1.384.476-2.211 1.745-.601.924-1.133 2.235-1.515 3.324-.493-.915-.984-1.932-1.137-2.575-.324-1.362-.623-4.01-.328-5.948.477-.596.994-1.166 1.572-1.688 1.403-1.264 3.02-2.212 4.748-2.815.821 1.225 1.804 3.01 1.753 4.272m-7.312 11.154c-.461.757-1.016 2.35-.146 4.214.198.422.769 1.082 1.685 2.123.506.575 1.199 1.362 1.336 1.607.472.841.701 1.543.839 2.161-1.45-.752-2.793-1.743-3.933-3.01-2.494-2.769-3.761-6.343-3.566-10.07.089-1.704.492-3.339 1.156-4.857.09 1.391.295 2.628.445 3.266.334 1.41 1.676 3.717 2.184 4.56m4.445 7.06c-.215-.384-.73-.979-1.554-1.917-.511-.58-1.282-1.458-1.407-1.697-.463-.99-.267-1.852-.072-2.299 1.519.024 4.519.195 5.998.813 2.01.837 3.479 2.499 4.03 4.56.361 1.348-1.059 3.52-2.434 5.084-1.133-.094-2.252-.3-3.33-.663-.102-.921-.296-2.218-1.229-3.881m18.305-20.664c-3.03-3.363-7.191-5.345-11.713-5.579-4.523-.23-8.867 1.308-12.232 4.34-3.366 3.03-5.35 7.191-5.586 11.715-.236 4.522 1.303 8.865 4.335 12.229 3.286 3.649 7.903 5.59 12.595 5.59 2.608 0 5.239-.601 7.676-1.84.738-.375 1.033-1.278.658-2.02-.375-.739-1.279-1.035-2.02-.658-1.637.833-3.381 1.274-5.133 1.424 1.182-1.585 2.334-3.711 1.846-5.545-.695-2.605-2.544-4.704-5.075-5.758-1.675-.698-4.52-.885-6.084-.937.316-1.027.967-2.969 1.709-4.108.526-.808.819-.891 1.19-.994.313-.089.745-.21 1.172-.619.188-.182.403-.352.624-.529.971-.778 2.3-1.846 2.396-4.195.065-1.617-.882-3.494-1.721-4.834 1.135-.229 2.305-.331 3.49-.269 2.317.12 4.514.798 6.448 1.957-.373.434-.832.915-1.199 1.297-.621.649-1.266 1.321-1.697 1.898-.855 1.141-.746 1.958-.504 2.443.318.635 1.01.997 1.891.997.521 0 1.111-.076 1.592-.159.033.523-.021.96-.141 1.058-1.684.42-2.75 2.729-2.945 3.188-.094.22-.098.468-.001.688.713 1.781 1.842 3.905 3.174 3.905.465 0 .768.569.768.767 0 .325.117.858 1.131 1.716.568.481 1.531 1.125 2.592 1.522-.045.074-.074.155-.121.228-.451.695-.252 1.624.443 2.074.695.449 1.623.252 2.074-.443 4.161-6.424 3.491-14.876-1.625-20.553"/></svg>