<svg xmlns="http://www.w3.org/2000/svg" width="56" height="56" viewBox="0 0 56 56"><defs><linearGradient gradientUnits="userSpaceOnUse" y1="54.11" x2="0" y2="1.891"><stop stop-color="#a6a5a6"/><stop offset="1" stop-color="#b7b9ba"/></linearGradient><linearGradient gradientUnits="userSpaceOnUse" y1="54.11" x2="0" y2="1.891"><stop stop-color="#c8c8c8"/><stop offset="1" stop-color="#fafafa"/></linearGradient><linearGradient gradientUnits="userSpaceOnUse" y1="54.11" x2="0" y2="1.891"><stop stop-color="#af004b"/><stop offset="1" stop-color="#c3004a"/></linearGradient><linearGradient gradientUnits="userSpaceOnUse" y1="54.11" x2="0" y2="1.891"><stop stop-color="#00873d"/><stop offset="1" stop-color="#009c3d"/></linearGradient></defs><g fill="#009534"><path d="m47.28 44.31c-.875 0-1.584-.709-1.584-1.584v-5.145h-13.942c-.665 0-1.26-.415-1.487-1.04l-4.861-13.299-7.627.975c-.767.103-1.488-.369-1.715-1.105l-1.098-3.571-4.933-2.573c-.467-.243-.782-.703-.841-1.226-.193-1.701 1.065-3.246 2.805-3.444l24.941-2.841c1.75-.198 3.313 1.024 3.507 2.725l.784 6.22c.195 1.719-1.063 3.263-2.802 3.461l-4.69.566 2.66 7.192h9.299v-18.601c0-.875.709-1.584 1.584-1.584s1.584.709 1.584 1.584v20.18c0 .875-.709 1.584-1.584 1.584h-11.986c-.663 0-1.256-.413-1.485-1.034l-3.738-10.11c-.169-.455-.119-.961.134-1.375.252-.414.681-.689 1.162-.747l6.69-.807-.758-6.157-23.627 2.733 3.345 1.745c.375.196.657.534.782.938l.901 2.929 7.559-.966c.729-.097 1.434.333 1.688 1.027l4.915 13.446h14.419c.875 0 1.584.709 1.584 1.584v6.729c-.0001.876-.71 1.585-1.585 1.585"/><path d="m16.938 45.879c-.013 0-.026-.0001-.039-.0001-.41-.018-.746-.053-1.058-.11-.532-.096-1.063-.252-1.575-.465-.455-.187-.93-.433-1.407-.73-.396-.247-.799-.532-1.229-.871-.373-.293-.72-.59-1.043-.873l-.321-.285c-.369-.334-.397-.902-.064-1.271.332-.368.901-.397 1.271-.064l.299.266c.302.264.625.541.972.813.379.299.728.547 1.068.759.393.244.777.444 1.142.594.397.165.803.285 1.21.358.261.048.527.069.798.081.0001 0 .002 0 .003 0 .233-.012.498-.033.757-.081.408-.073.814-.193 1.208-.356.373-.153.747-.348 1.147-.597.337-.21.687-.458 1.067-.758.343-.271.668-.548.967-.812l.854-.754c.202-.178.387-.337.555-.476-.166-.136-.351-.295-.553-.471l-.853-.754c-.303-.267-.628-.544-.974-.818-.385-.301-.734-.549-1.064-.754-.383-.24-.768-.44-1.146-.598-.397-.163-.804-.284-1.208-.356-.263-.046-.535-.069-.813-.081-.211.012-.485.034-.75.081-.401.072-.808.193-1.205.357-.379.156-.763.356-1.142.594-.336.209-.685.456-1.071.76-.346.272-.669.55-.971.814l-.85.752c-.274.239-.515.445-.724.609-.228.181-.425.317-.585.418-.19.118-.336.187-.433.228-.006.003-.031.013-.056.023-.122.061-.259.096-.405.096-.497 0-.9-.403-.9-.9 0-.378.276-.736.632-.865.063-.026.128-.058.213-.11.114-.07.255-.17.421-.303.193-.151.41-.338.654-.551l.85-.752c.324-.283.671-.58 1.044-.875.44-.346.842-.63 1.231-.871.459-.289.935-.536 1.407-.731.516-.213 1.046-.369 1.576-.465.315-.056.66-.091 1.056-.108.481.018.825.053 1.139.107.532.097 1.063.253 1.58.466.472.195.946.442 1.411.733.383.238.785.522 1.226.867.375.298.724.595 1.045.878l.852.754c.241.21.458.396.647.545.17.136.311.235.426.307.081.05.145.082.188.101.624.231.654.769.654.874 0 .377-.273.733-.627.863-.071.029-.137.063-.223.116-.108.067-.25.169-.418.301-.188.147-.404.332-.647.546l-.855.757c-.318.28-.667.578-1.039.871-.434.341-.836.626-1.23.872-.487.303-.949.542-1.413.732-.51.211-1.041.368-1.573.464-.31.057-.64.091-1.036.107-.024.002-.047.003-.07.003"/><circle cx="17.11" cy="40.13" r="1.563"/></g></svg>